<?xml version="1.0" standalone="no"?>
<!DOCTYPE svg PUBLIC "-//W3C//DTD SVG 20010904//EN"
 "http://www.w3.org/TR/2001/REC-SVG-20010904/DTD/svg10.dtd">
<svg version="1.0" xmlns="http://www.w3.org/2000/svg"
 width="32.000000pt" height="32.000000pt" viewBox="0 0 32.000000 32.000000"
 preserveAspectRatio="xMidYMid meet">

<g transform="translate(0.000000,32.000000) scale(0.100000,-0.100000)"
fill="#000000" stroke="none">
<path d="M0 160 l0 -160 160 0 160 0 0 160 0 160 -160 0 -160 0 0 -160z m247
50 c18 -35 17 -80 -2 -80 -7 0 -18 7 -22 15 -5 8 -25 16 -45 17 -20 2 -34 8
-31 14 2 6 -3 11 -12 11 -8 0 -14 -5 -12 -11 5 -15 -33 -48 -49 -42 -10 4 -13
14 -8 33 18 72 16 71 96 69 67 -1 74 -3 85 -26z m-200 -72 c-3 -8 -6 -5 -6 6
-1 11 2 17 5 13 3 -3 4 -12 1 -19z m28 -28 c3 -6 -1 -7 -9 -4 -10 4 -16 1 -16
-9 0 -22 34 -15 43 8 8 19 9 19 19 2 12 -23 9 -26 -36 -34 -31 -5 -36 -3 -36
14 0 30 22 45 35 23z m104 0 c18 9 21 8 21 -8 0 -15 -7 -18 -35 -18 -27 1 -35
5 -35 20 0 15 3 16 14 7 11 -9 20 -10 35 -1z m61 -19 c0 -19 -3 -22 -9 -12 -7
11 -9 11 -14 0 -3 -8 -6 -2 -6 12 -1 16 4 26 14 26 10 0 15 -10 15 -26z m47 1
c2 -16 -2 -22 -17 -22 -13 0 -20 7 -20 18 0 38 31 41 37 4z m-190 -38 c-3 -3
-12 -4 -19 -1 -8 3 -5 6 6 6 11 1 17 -2 13 -5z m160 0 c-3 -3 -12 -4 -19 -1
-8 3 -5 6 6 6 11 1 17 -2 13 -5z"/>
<path d="M95 220 c-10 -16 7 -31 23 -21 10 6 10 10 -2 20 -10 9 -16 9 -21 1z"/>
<path d="M204 219 c-3 -6 -2 -15 3 -20 5 -5 9 -1 9 11 0 23 -2 24 -12 9z"/>
<path d="M185 180 c-3 -5 -1 -10 4 -10 6 0 11 5 11 10 0 6 -2 10 -4 10 -3 0
-8 -4 -11 -10z"/>
<path d="M260 95 c0 -8 2 -15 4 -15 2 0 6 7 10 15 3 8 1 15 -4 15 -6 0 -10 -7
-10 -15z"/>
</g>
</svg>
